<svg xmlns="http://www.w3.org/2000/svg" width="220" height="38" viewBox="0 0 220 38" fill="none"><path fill-rule="evenodd" clip-rule="evenodd" d="M20.419 35.7387L34.5042 0.58558C34.6331 0.256191 34.9461 0 35.2591 0H35.701C36.014 0 36.327 0.256191 36.4743 0.567281L50.5595 35.7204C50.8357 36.3975 50.4675 37.0746 49.7862 37.0746H44.7966C43.9864 37.0746 43.6182 36.7635 43.2315 35.7753L41.6113 31.6579H29.3673L27.747 35.8302C27.526 36.4524 27.0289 37.0929 26.1267 37.0929H21.1739C20.511 37.0929 20.1612 36.4158 20.419 35.7387ZM38.9047 24.5578L35.4801 15.9388H35.4432L32.0738 24.5578H38.9047ZM0 1.51885C0 0.988167 0.368242 0.530682 0.846955 0.530682H6.20487C6.64676 0.530682 7.05182 1.00647 7.05182 1.51885V29.4254H17.7492C18.2464 29.4254 18.5962 29.9012 18.5962 30.4136V36.1047C18.5962 36.6354 18.228 37.0928 17.7492 37.0928H0.846955C0.368242 37.0928 0 36.6171 0 36.1047V1.51885ZM48.4606 0.530682C47.7793 0.530682 47.4111 1.20776 47.6873 1.88484L61.7357 37.0379C61.883 37.349 62.1407 37.6052 62.509 37.6052H62.9509C63.3191 37.6052 63.5953 37.349 63.7242 37.0379L77.8462 1.88484C78.104 1.20776 77.7542 0.530682 77.0729 0.530682H71.089C70.7208 0.530682 70.4078 0.841772 70.3157 1.09796L62.914 20.1659H62.6379L55.2178 1.09796C55.1257 0.841772 54.8127 0.530682 54.4445 0.530682H48.4606ZM74.9371 35.7387L89.0224 0.58558C89.1513 0.256191 89.4643 0 89.7773 0H90.2376C90.5506 0 90.8636 0.256191 91.0109 0.567281L105.096 35.7204C105.372 36.3975 105.004 37.0746 104.323 37.0746H99.3331C98.523 37.0746 98.1732 36.7635 97.7497 35.7753L96.1294 31.6396H83.8854L82.2651 35.8119C82.0442 36.4341 81.5471 37.0746 80.6449 37.0746H75.692C75.0292 37.0929 74.6794 36.4158 74.9371 35.7387ZM93.4229 24.5578L89.9982 15.9388H89.943L86.5736 24.5578H93.4229ZM109.092 27.7968L106.974 32.1337C106.606 32.8657 106.753 33.067 107.177 33.616C108.226 34.8237 111.448 37.6418 117.303 37.6418C123.932 37.6418 127.927 32.2069 127.927 26.8269C127.927 19.7267 122.367 16.5243 118.85 14.914C115.296 13.2488 113.952 11.7848 113.952 9.84507C113.952 8.43602 115.168 7.17336 116.788 7.17336C119.147 7.17336 121.9 9.29729 122.883 10.0556C123.044 10.1793 123.157 10.2666 123.214 10.3026C123.619 10.6685 124.429 10.1928 124.742 9.62547L127.043 5.59961C127.209 5.23362 127.301 4.30036 126.767 3.93437C125.423 2.78151 121.814 0.0182994 117.138 0.0182994C110.215 0.0182994 106.753 5.23362 106.753 10.4123C106.753 16.689 111.614 20.1842 115.481 21.9593C118.555 23.3683 120.12 25.0336 120.12 27.2295C120.12 29.0594 118.813 30.3587 117.009 30.3587C114.358 30.3587 111.486 28.1489 110.777 27.6031L110.777 27.603L110.776 27.6025L110.775 27.6021C110.692 27.5381 110.639 27.4972 110.62 27.4857C110.307 27.2295 109.46 27.1197 109.092 27.7968ZM133.414 1.51885C133.414 0.988167 133.782 0.530682 134.261 0.530682H139.619C140.079 0.530682 140.466 1.00647 140.466 1.51885V29.4254H151.163C151.66 29.4254 152.01 29.9012 152.01 30.4136V36.1047C152.01 36.6354 151.642 37.0928 151.163 37.0928H134.242C133.745 37.0928 133.395 36.6171 133.395 36.1047V1.51885H133.414ZM157.258 0.530682C156.816 0.530682 156.411 0.988167 156.411 1.51885V36.1047C156.411 36.6171 156.797 37.0928 157.258 37.0928H162.652C163.094 37.0928 163.499 36.6354 163.499 36.1047V1.51885C163.499 1.00647 163.094 0.530682 162.652 0.530682H157.258ZM174.362 0.841772C174.399 0.365988 174.804 0 175.172 0H175.891C176.111 0 176.517 0.201293 176.664 0.530682L187.103 23.0938H187.196L197.635 0.530682C197.746 0.201293 198.151 0 198.372 0H199.09C199.458 0 199.863 0.365988 199.9 0.841772L204.982 35.9583C205.074 36.6354 204.669 37.1111 204.135 37.1111H198.832C198.427 37.1111 198.022 36.6903 197.985 36.2694L195.96 20.1293H195.868L188.319 37.0563C188.19 37.3673 187.785 37.6235 187.545 37.6235H186.735C186.459 37.6235 186.109 37.3673 185.962 37.0563L178.358 20.1293H178.266L176.277 36.2694C176.24 36.6903 175.872 37.1111 175.43 37.1111H170.128C169.594 37.1111 169.189 36.6354 169.281 35.9583L174.362 0.841772ZM212.873 0.145833L211.595 6.67917C211.574 6.81528 211.66 6.90278 211.799 6.90278H212.766C212.862 6.90278 212.948 6.825 212.959 6.75694L213.582 3.07222H213.614L215.515 6.89306C215.547 6.95139 215.601 7 215.698 7H215.891C215.988 7 216.052 6.95139 216.073 6.89306L217.953 3.07222H217.985L218.619 6.75694C218.64 6.825 218.726 6.90278 218.823 6.90278H219.8C219.94 6.90278 220.025 6.81528 219.993 6.67917L218.726 0.145833C218.715 0.0680557 218.651 0 218.533 0H218.361C218.264 0 218.211 0.038889 218.178 0.0972221L215.816 4.68611H215.783L213.421 0.0972221C213.389 0.038889 213.324 0 213.238 0H213.066C212.948 0 212.884 0.0680557 212.873 0.145833ZM207.847 1.26389V6.71805C207.847 6.81528 207.944 6.90278 208.051 6.90278H209.05C209.157 6.90278 209.254 6.81528 209.254 6.71805V1.26389H210.897C211.015 1.26389 211.101 1.17639 211.101 1.07917V0.281944C211.101 0.184722 211.015 0.0972221 210.897 0.0972221H206.204C206.086 0.0972221 206 0.184722 206 0.281944V1.07917C206 1.17639 206.086 1.26389 206.204 1.26389H207.847Z" fill="white"></path></svg>